<?xml version="1.0" standalone="no"?><!DOCTYPE svg PUBLIC "-//W3C//DTD SVG 1.1//EN" "http://www.w3.org/Graphics/SVG/1.1/DTD/svg11.dtd"><svg t="1619390192534" class="icon" viewBox="0 0 1024 1024" version="1.1" xmlns="http://www.w3.org/2000/svg" p-id="22895" xmlns:xlink="http://www.w3.org/1999/xlink" width="200" height="200"><defs><style type="text/css"></style></defs><path d="M619.27619 170.666667c-80.457143 0-156.038095 34.133333-207.238095 92.647619 170.666667 4.87619 304.761905 146.285714 302.32381 319.390476-2.438095 48.761905-14.628571 97.52381-39.009524 141.409524 151.161905-29.257143 248.685714-177.980952 219.428571-329.142857C865.52381 265.752381 750.933333 170.666667 619.27619 170.666667z m29.257143 156.038095c-17.066667 0-31.695238-14.628571-31.695238-31.695238 0-17.066667 14.628571-31.695238 31.695238-31.695238 17.066667 0 31.695238 14.628571 31.695238 31.695238s-14.628571 31.695238-31.695238 31.695238z m109.714286 199.923809c-17.066667 0-31.695238-14.628571-31.695238-31.695238 0-17.066667 14.628571-31.695238 31.695238-31.695238 17.066667 0 31.695238 14.628571 31.695238 31.695238 0 19.504762-14.628571 31.695238-31.695238 31.695238z m14.628571-124.342857c-17.066667 0-31.695238-14.628571-31.695238-31.695238 0-17.066667 14.628571-31.695238 31.695238-31.695238 17.066667 0 31.695238 14.628571 31.695239 31.695238 0 19.504762-14.628571 31.695238-31.695239 31.695238z m-370.590476-107.27619C246.247619 295.009524 121.904762 419.352381 121.904762 572.952381 121.904762 728.990476 246.247619 853.333333 402.285714 853.333333S682.666667 728.990476 682.666667 572.952381c-2.438095-153.6-126.780952-277.942857-280.380953-277.942857z m-17.066666 124.342857c17.066667 0 31.695238 14.628571 31.695238 31.695238 0 17.066667-14.628571 31.695238-31.695238 31.695238-17.066667 0-31.695238-14.628571-31.695238-31.695238 0-17.066667 14.628571-31.695238 31.695238-31.695238z m-124.342858 185.295238c-17.066667 0-31.695238-14.628571-31.695238-31.695238s14.628571-31.695238 31.695238-31.695238c17.066667 0 31.695238 14.628571 31.695239 31.695238 0 17.066667-14.628571 31.695238-31.695239 31.695238z m92.64762 124.342857c-17.066667 0-31.695238-14.628571-31.695239-31.695238 0-17.066667 14.628571-31.695238 31.695239-31.695238 17.066667 0 31.695238 14.628571 31.695238 31.695238 0 17.066667-14.628571 31.695238-31.695238 31.695238z m63.390476-124.342857c-17.066667 0-31.695238-14.628571-31.695238-31.695238 0-17.066667 14.628571-31.695238 31.695238-31.695238 17.066667 0 31.695238 14.628571 31.695238 31.695238 0 17.066667-14.628571 31.695238-31.695238 31.695238z m92.647619 92.647619c-17.066667 0-31.695238-14.628571-31.695238-31.695238 0-17.066667 14.628571-31.695238 31.695238-31.695238 17.066667 0 31.695238 14.628571 31.695238 31.695238 0 19.504762-14.628571 31.695238-31.695238 31.695238z m14.628571-153.6c-17.066667 0-31.695238-14.628571-31.695238-31.695238 0-17.066667 14.628571-31.695238 31.695238-31.695238 17.066667 0 31.695238 14.628571 31.695238 31.695238 0 17.066667-14.628571 31.695238-31.695238 31.695238z" p-id="22896"></path></svg>