<?xml version="1.0" standalone="no"?><!DOCTYPE svg PUBLIC "-//W3C//DTD SVG 1.1//EN" "http://www.w3.org/Graphics/SVG/1.1/DTD/svg11.dtd"><svg t="1619391285469" class="icon" viewBox="0 0 1024 1024" version="1.1" xmlns="http://www.w3.org/2000/svg" p-id="40701" xmlns:xlink="http://www.w3.org/1999/xlink" width="200" height="200"><defs><style type="text/css"></style></defs><path d="M837.818182 0H186.181818a116.363636 116.363636 0 0 0-116.363636 116.363636v418.909091a116.363636 116.363636 0 0 0 116.363636 116.363637h302.545455v349.090909a23.272727 23.272727 0 0 0 46.545454 0V651.636364h302.545455a116.363636 116.363636 0 0 0 116.363636-116.363637V116.363636a116.363636 116.363636 0 0 0-116.363636-116.363636zM186.181818 46.545455h651.636364a69.818182 69.818182 0 0 1 69.818182 69.818181v116.363637H116.363636V116.363636a69.818182 69.818182 0 0 1 69.818182-69.818181z m651.636364 558.545454H186.181818a69.818182 69.818182 0 0 1-69.818182-69.818182V279.272727h791.272728v256a69.818182 69.818182 0 0 1-69.818182 69.818182z" fill="#1B1B5C" p-id="40702"></path><path d="M232.727273 349.090909a23.272727 23.272727 0 0 0-23.272728 23.272727v139.636364a23.272727 23.272727 0 0 0 46.545455 0v-139.636364a23.272727 23.272727 0 0 0-23.272727-23.272727zM418.909091 349.090909a23.272727 23.272727 0 0 0-23.272727 23.272727v139.636364a23.272727 23.272727 0 0 0 46.545454 0v-139.636364a23.272727 23.272727 0 0 0-23.272727-23.272727zM605.090909 349.090909a23.272727 23.272727 0 0 0-23.272727 23.272727v139.636364a23.272727 23.272727 0 0 0 46.545454 0v-139.636364a23.272727 23.272727 0 0 0-23.272727-23.272727zM791.272727 349.090909a23.272727 23.272727 0 0 0-23.272727 23.272727v139.636364a23.272727 23.272727 0 0 0 46.545455 0v-139.636364a23.272727 23.272727 0 0 0-23.272728-23.272727zM418.909091 116.363636h-186.181818a23.272727 23.272727 0 0 0 0 46.545455h186.181818a23.272727 23.272727 0 0 0 0-46.545455z" fill="#F7E579" p-id="40703"></path></svg>