
<svg t="1619159952074" class="icon" viewBox="0 0 1024 1024" version="1.1" xmlns="http://www.w3.org/2000/svg" p-id="16727" width="200" height="200"><path d="M72.08448 101.75488a5.12512 5.12512 0 0 1 5.12-5.12h32.39424a5.09952 5.09952 0 0 1 5.12 5.12v790.68672h861.74208a5.10464 5.10464 0 0 1 5.12 5.12v32.38912a5.10464 5.10464 0 0 1-5.12 5.12H72.08448V101.75488z" p-id="16728"></path><path d="M192.34816 303.24224c0-3.03616 1.15712-6.07744 3.47648-8.39168a11.81696 11.81696 0 0 1 8.39168-3.47648H312.2176c3.03616 0 6.07232 1.15712 8.38656 3.47648 2.31936 2.31936 3.47648 5.3504 3.47648 8.39168V862.208H192.34816V303.24224zM778.34752 467.90144c0-3.03616 1.16224-6.07744 3.4816-8.39168a11.81184 11.81184 0 0 1 8.39168-3.47648h108.00128a11.8272 11.8272 0 0 1 8.39168 3.47648c2.31424 2.31936 3.47136 5.3504 3.47136 8.39168v394.30144h-131.73248V467.90144zM390.76864 617.85088a12.6464 12.6464 0 0 1 12.65664-12.66176h115.2a12.5952 12.5952 0 0 1 8.94464 3.712c2.47296 2.46784 3.712 5.7088 3.712 8.94976v244.95104H390.76864v-244.95104zM579.21024 733.07648c0-6.12864 1.23392-12.2624 3.70688-16.93696 2.47296-4.67456 5.71392-7.01952 8.94976-7.01952h115.2c3.24096 0 6.4768 2.34496 8.94464 7.01952 2.47296 4.67456 3.712 10.8032 3.712 16.93696v131.14368h-140.50816v-131.14368z" p-id="16729"></path></svg>