<?xml version="1.0" standalone="no"?><!DOCTYPE svg PUBLIC "-//W3C//DTD SVG 1.1//EN" "http://www.w3.org/Graphics/SVG/1.1/DTD/svg11.dtd"><svg t="1619391952408" class="icon" viewBox="0 0 1024 1024" version="1.1" xmlns="http://www.w3.org/2000/svg" p-id="59440" xmlns:xlink="http://www.w3.org/1999/xlink" width="200" height="200"><defs><style type="text/css"></style></defs><path d="M511.602939 167.392653L156.964571 522.051918c-93.873633 93.852735-93.873633 246.010776 0 339.863511 93.831837 93.852735 246.010776 93.852735 339.863511 0l354.638367-354.638368c93.852735-93.852735 93.852735-246.031673 0-339.884408-93.831837-93.831837-246.010776-93.831837-339.86351 0zM201.268245 566.37649l354.659265-354.638368a177.632653 177.632653 0 0 1 251.214368 251.19347l-354.638368 354.659265a177.632653 177.632653 0 0 1-251.214367-251.193469z" fill="#666666" p-id="59441"></path><path d="M613.16702 257.044898a31.346939 31.346939 0 0 1 23.719184-37.449143 135.732245 135.732245 0 0 1 125.931102 36.466939 135.732245 135.732245 0 0 1 36.341551 126.516245 31.346939 31.346939 0 0 1-61.105633-14.001633 73.059265 73.059265 0 0 0-19.581387-68.190041 73.059265 73.059265 0 0 0-67.834776-19.644081A31.346939 31.346939 0 0 1 613.146122 257.044898zM364.460408 354.011429a31.346939 31.346939 0 0 1 41.942204-2.173388l2.382368 2.15249 271.673469 271.673469a31.346939 31.346939 0 0 1-41.963102 46.497959l-2.382367-2.15249-271.67347-271.673469a31.346939 31.346939 0 0 1 0-44.345469z" fill="#666666" p-id="59442"></path></svg>