<?xml version="1.0" standalone="no"?><!DOCTYPE svg PUBLIC "-//W3C//DTD SVG 1.1//EN" "http://www.w3.org/Graphics/SVG/1.1/DTD/svg11.dtd"><svg t="1619391665205" class="icon" viewBox="0 0 1024 1024" version="1.1" xmlns="http://www.w3.org/2000/svg" p-id="54712" xmlns:xlink="http://www.w3.org/1999/xlink" width="200" height="200"><defs><style type="text/css"></style></defs><path d="M364.4 926.4h-15.1c-66 0-119.7-53.7-119.7-119.7V508c-74.3-49.3-114.1-137.9-100.1-228 12.3-79.8 67.3-148 143.6-178 12.7-5 27.1-3.4 38.5 4.3 11.3 7.7 18.1 20.5 18.1 34.2v117.3h54.5v-117c0-13.7 6.8-26.5 18.1-34.2 11.3-7.7 25.7-9.3 38.4-4.4C529.6 137 587 221 587 316.3c0 78-38.9 149.3-103 191.7v298.7c0.1 66-53.6 119.7-119.6 119.7zM246.8 218.3c-18.6 20.7-31.2 46.4-35.5 74.3-9.8 63.5 21.8 125.8 78.6 154.8 13.8 7.1 22.5 21.3 22.5 36.9v322.4c0 20.3 16.5 36.8 36.8 36.8h15.1c20.3 0 36.9-16.5 36.9-36.8V484.3c0-15.5 8.7-29.8 22.5-36.9 49.6-25.4 80.4-75.6 80.4-131.1 0-37.2-13.7-71.7-37.3-98v80.9c0 22.9-18.5 41.4-41.4 41.4H288.2c-22.9 0-41.4-18.5-41.4-41.4v-80.9zM771.6 926.4h-57.3c-68.5 0-124.3-55.8-124.3-124.3V524.7c0-22.9 18.5-41.4 41.4-41.4h223.1c22.9 0 41.4 18.5 41.4 41.4v277.4c0 68.5-55.8 124.3-124.3 124.3z m-98.8-360.3v236c0 22.9 18.6 41.5 41.5 41.5h57.3c22.9 0 41.5-18.6 41.5-41.5v-236H672.8z" fill="#333333" p-id="54713"></path><path d="M742.9 563.9c-22.9 0-41.4-18.5-41.4-41.4V139.6c0-22.9 18.5-41.4 41.4-41.4s41.4 18.5 41.4 41.4v382.9c0.1 22.9-18.5 41.4-41.4 41.4z" fill="#333333" p-id="54714"></path></svg>