<?xml version="1.0" standalone="no"?><!DOCTYPE svg PUBLIC "-//W3C//DTD SVG 1.1//EN" "http://www.w3.org/Graphics/SVG/1.1/DTD/svg11.dtd"><svg t="1619390719542" class="icon" viewBox="0 0 1024 1024" version="1.1" xmlns="http://www.w3.org/2000/svg" p-id="31223" xmlns:xlink="http://www.w3.org/1999/xlink" width="200" height="200"><defs><style type="text/css"></style></defs><path d="M98.193508 468.575628l1.195513-3.107326C98.958233 466.488272 98.565782 467.526402 98.193508 468.575628z" p-id="31224"></path><path d="M922.235085 465.468303 764.483829 55.405231c-0.630545-1.962256-1.371057-3.874068-2.206403-5.735437-8.772142-19.56001-28.400755-33.191888-51.224465-33.191888l-200.240908 0L310.572155 16.477906c-22.825728 0-42.453332 13.631878-51.224465 33.191888-0.834337 1.861369-1.575858 3.773181-2.207412 5.735437L99.389022 465.468303c0 0 13.044715-33.64588-1.195513 3.107326-25.464937 67.39063 50.308409 117.905858 134.797401 119.141726 34.872668 0 66.445316-14.137323 89.299293-36.989282 5.177531-5.177531 11.171239-9.531822 17.756147-12.894393 9.562088-4.88294 20.381231-7.65532 31.855132-7.65532 2.172101 0 4.316963 0.112994 6.437612 0.306697 16.802763 1.52945 31.898514 8.968872 43.172658 20.243016l0-0.001009c16.498083 16.496065 37.540126 28.446154 61.087197 33.819406l0 269.889393L328.247591 854.435862c-30.999609 0-56.127583 25.128983-56.127583 56.129601l0 56.127583c0 30.999609 25.128983 56.128592 56.127583 56.128592l364.833324 0c31.000618 0 56.128592-25.128983 56.128592-56.128592l0-56.127583c0-31.000618-25.127974-56.129601-56.128592-56.129601L538.728549 854.435862 538.728549 584.611037c23.666119-5.340968 44.815102-17.319305 61.382797-33.883974l0 0.001009c11.275153-11.275153 26.370904-18.714575 43.173667-20.243016 2.121658-0.193703 4.26652-0.306697 6.437612-0.306697 11.472892 0 22.293044 2.77238 31.854123 7.65532 6.585916 3.36257 12.579625 7.716862 17.757155 12.894393 22.853977 22.851959 54.425616 36.989282 89.299293 36.989282 84.49-1.235868 160.263347-51.751096 134.796392-119.141726C909.19037 431.822423 922.235085 465.468303 922.235085 465.468303zM693.079907 924.596854l0 28.062783c0 7.750154-6.283255 14.0324-14.031391 14.0324L342.278983 966.692037c-7.749146 0-14.0324-6.283255-14.0324-14.0324l0-28.062783c0-7.750154 6.283255-14.031391 14.0324-14.031391l336.769533 0C686.797661 910.564454 693.079907 916.8467 693.079907 924.596854zM282.602188 511.038041c-12.695645 12.695645-30.235893 20.550722-49.611279 20.550722s-89.285169-10.707158-79.931917-49.996668c5.380314-21.570691 134.821614-355.511347 134.821614-355.511347l12.82478-33.114205 1.855316-4.790124c5.905936-15.969434 19.221029-15.243047 29.870681-15.569921l1.736269 0 32.531077 0 37.977976 0-71.749965 407.581247C313.728915 486.411476 296.541772 497.098457 282.602188 511.038041zM630.871853 475.451091c-27.328324 4.089967-51.791451 16.930889-70.447512 35.584932l-0.001009 0c-12.697663 12.696654-30.237911 20.549713-49.612288 20.549713-19.372359 0-36.912607-7.852051-49.61027-20.549713l0 0c-18.65606-18.654043-43.121206-31.494965-70.44852-35.584932l70.915628-402.844593 49.143162 0 62.168708 0 69.899694 401.627894c0.436842-0.023204 0.875701-0.034302 1.313551-0.05347C639.688385 474.376642 635.242286 474.797342 630.871853 475.451091zM645.467203 474.129469c1.41343-0.048426 2.831904-0.081719 4.256431-0.081719 1.542565 0 3.078068 0.038337 4.606509 0.092816-1.530459-0.055488-3.063944-0.090798-4.607518-0.090798C648.297089 474.049768 646.879624 474.082052 645.467203 474.129469zM831.521353 538.519713 831.521353 538.519713c0.019169 0.06255 0.042373 0.121065 0.06255 0.183615C831.563726 538.640778 831.538504 538.582263 831.521353 538.519713zM788.632188 531.588763c-19.374377 0-36.914625-7.855077-49.61027-20.550722-13.939584-13.939584-31.127736-24.626565-50.32556-30.850296-4.55203-1.474971-9.219072-2.697724-13.979939-3.656152 9.437997 1.894662 18.499685 4.832497 27.050884 8.704547L629.951761 72.606498l24.972608 0 32.531077 0 1.736269 0c10.650661 0.326875 23.965754-0.399513 29.87169 15.569921l1.855316 4.790124 12.822763 33.114205c0 0 129.442309 333.940656 134.824641 355.511347C877.918366 520.881604 808.007574 531.588763 788.632188 531.588763zM655.306732 474.180921c1.508264 0.065577 3.012492 0.150322 4.50764 0.26836C658.319223 474.330234 656.814995 474.246498 655.306732 474.180921zM659.826478 474.449281c1.565769 0.124091 3.12145 0.283493 4.670068 0.464081C662.947928 474.731765 661.392247 474.574381 659.826478 474.449281zM665.176526 474.99609c3.129521 0.382362 6.222722 0.87671 9.276578 1.483042C671.400257 475.870782 668.305038 475.378452 665.176526 474.99609z" p-id="31225"></path></svg>