<?xml version="1.0" standalone="no"?><!DOCTYPE svg PUBLIC "-//W3C//DTD SVG 1.1//EN" "http://www.w3.org/Graphics/SVG/1.1/DTD/svg11.dtd"><svg t="1619389401974" class="icon" viewBox="0 0 1024 1024" version="1.1" xmlns="http://www.w3.org/2000/svg" p-id="16851" xmlns:xlink="http://www.w3.org/1999/xlink" width="200" height="200"><defs><style type="text/css"></style></defs><path d="M686.4896 547.84h-113.8688v-113.8688c0-10.24-8.3968-18.8416-18.8416-18.8416h-83.968c-10.24 0-18.8416 8.3968-18.8416 18.8416v113.8688h-113.8688c-10.24 0-18.8416 8.3968-18.8416 18.8416v83.968c0 10.24 8.3968 18.8416 18.8416 18.8416h113.8688v113.8688c0 10.24 8.3968 18.8416 18.8416 18.8416h83.968c10.24 0 18.8416-8.3968 18.8416-18.8416v-113.8688h113.8688c10.24 0 18.8416-8.3968 18.8416-18.8416v-83.968c0-10.4448-8.6016-18.8416-18.8416-18.8416z" fill="#040000" p-id="16852"></path><path d="M829.6448 935.1168H194.3552c-70.4512 0-127.7952-57.344-127.7952-127.7952V280.3712h891.0848v526.7456c0 70.656-57.344 128-128 128zM105.6768 319.6928v487.424c0 48.7424 39.7312 88.4736 88.4736 88.4736h635.4944c48.7424 0 88.4736-39.7312 88.4736-88.4736v-487.424H105.6768z" fill="#040000" p-id="16853"></path><path d="M715.9808 108.544c10.4448 0 18.8416 8.3968 18.8416 18.8416v151.7568H289.1776V127.3856c0-10.4448 8.3968-18.8416 18.8416-18.8416h407.9616m0-39.3216H308.0192c-32.1536 0-58.1632 26.2144-58.1632 58.1632v191.0784H774.144V127.3856c0-31.9488-26.0096-58.1632-58.1632-58.1632z" fill="#040000" p-id="16854"></path></svg>