<?xml version="1.0" standalone="no"?><!DOCTYPE svg PUBLIC "-//W3C//DTD SVG 1.1//EN" "http://www.w3.org/Graphics/SVG/1.1/DTD/svg11.dtd"><svg t="1619172465184" class="icon" viewBox="0 0 1024 1024" version="1.1" xmlns="http://www.w3.org/2000/svg" p-id="6563" xmlns:xlink="http://www.w3.org/1999/xlink" width="200" height="200"><defs><style type="text/css"></style></defs><path d="M886.349431 350.273219c0-16.495599 13.327346-29.868001 29.767649-29.868 16.439279 0 29.767649 13.373426 29.767648 29.868v598.409612c0 42.145748-36.21065 75.317169-79.380396 75.317169H158.228851C115.057057 1024 78.848455 990.828579 78.848455 948.682831V162.222985c0-42.146772 36.209626-75.318193 79.380396-75.318193h432.793146c16.440303 0 29.767649 13.373426 29.767649 29.868001 0 16.496623-13.327346 29.868001-29.767649 29.868H158.228851c-11.438068 0-19.845099 7.701496-19.845099 15.582192v786.459846c0 7.879672 8.407031 15.581168 19.845099 15.581168h708.275481c11.438068 0 19.845099-7.700472 19.845099-15.581168V350.273219z m-634.401126 74.078131c-16.440303 0-29.767649-13.373426-29.767649-29.868001 0-16.496623 13.327346-29.868001 29.767649-29.868001h260.427503c16.440303 0 29.767649 13.372402 29.767648 29.868001s-13.327346 29.868001-29.767648 29.868001H251.948305z m0.35328 300.717764c-16.439279 0.1536-29.890529-13.091826-30.045153-29.587425-0.154624-16.494575 13.04677-29.991905 29.486049-30.146528l450.865703-4.242428c16.439279-0.154624 29.890529 13.091826 30.044128 29.586401 0.154624 16.494575-13.04677 29.992929-29.486049 30.146528l-450.864678 4.242428zM891.125362 13.644837c8.932343-13.849585 27.361251-17.810413 41.164757-8.848375 13.801458 8.962039 17.748973 27.453411 8.81663 41.301973L748.840711 344.200906c-8.932343 13.848561-27.361251 17.809389-41.163732 8.84735-13.802482-8.962039-17.749997-27.453411-8.817655-41.301972L891.125362 13.644837z" p-id="6564"></path></svg>