<?xml version="1.0" standalone="no"?><!DOCTYPE svg PUBLIC "-//W3C//DTD SVG 1.1//EN" "http://www.w3.org/Graphics/SVG/1.1/DTD/svg11.dtd"><svg t="1619390198676" class="icon" viewBox="0 0 1024 1024" version="1.1" xmlns="http://www.w3.org/2000/svg" p-id="23035" xmlns:xlink="http://www.w3.org/1999/xlink" width="200" height="200"><defs><style type="text/css"></style></defs><path d="M1024 1024H0V704h1024zM64 960h896v-192H64z" p-id="23036"></path><path d="M128 832h256v64H128zM448 832h128v64h-128zM765.44 746.56h64V992h-64zM640 768h-256a192 192 0 0 1-192-192v-192a160 160 0 0 1 160-160h32a160 160 0 0 1 128 64 160 160 0 0 1 128-64h32a160 160 0 0 1 160 160v192a192 192 0 0 1-192 192zM352 288a96 96 0 0 0-96 96v192a128 128 0 0 0 128 128h256a128 128 0 0 0 128-128v-192a96 96 0 0 0-96-96h-32a96 96 0 0 0-96 96h-64a96 96 0 0 0-96-96z" p-id="23037"></path><path d="M544 352h-64V160a160 160 0 0 1 160-160v64a96 96 0 0 0-96 96z" p-id="23038"></path><path d="M410.24 192a128 128 0 0 1-120.32-85.12L286.08 96l3.84-10.56a128 128 0 0 1 240.64 0l3.84 10.56-3.84 10.88A128 128 0 0 1 410.24 192zM355.2 96a64 64 0 0 0 55.04 32 64 64 0 0 0 55.04-32 64 64 0 0 0-55.04-32 64 64 0 0 0-55.04 32z" p-id="23039"></path></svg>