<?xml version="1.0" standalone="no"?><!DOCTYPE svg PUBLIC "-//W3C//DTD SVG 1.1//EN" "http://www.w3.org/Graphics/SVG/1.1/DTD/svg11.dtd"><svg t="1619390160890" class="icon" viewBox="0 0 1024 1024" version="1.1" xmlns="http://www.w3.org/2000/svg" p-id="22472" xmlns:xlink="http://www.w3.org/1999/xlink" width="200" height="200"><defs><style type="text/css"></style></defs><path d="M742.699266 339.276147l-51.604308 0L691.094958 150.052504c0-46.397726-37.736463-84.140329-84.120886-84.140329L417.018765 65.912176c-46.390563 0-84.128049 37.743626-84.128049 84.140329l0 189.223642-51.604308 0c-90.521666 0-164.165943 73.637114-164.165943 164.146501l0 290.524816c0 90.509387 73.644277 164.140361 164.165943 164.140361L742.699266 958.087824c90.528829 0 164.179246-73.630974 164.179246-164.140361L906.878512 503.422647C906.878512 412.913261 833.228095 339.276147 742.699266 339.276147zM417.018765 144.800897l189.955306 0c2.882654 0 5.232165 2.355651 5.232165 5.251607l0 63.776536L411.780461 213.82904l0-63.776536C411.780461 147.157571 414.129972 144.800897 417.018765 144.800897zM827.988768 793.947464c0 47.007617-38.263465 85.251639-85.289502 85.251639L281.287431 879.199103c-47.019897 0-85.277222-38.244023-85.277222-85.251639L196.010209 503.422647c0-47.013757 38.256302-85.257779 85.277222-85.257779l91.048669 0c21.783119 0 39.444361-17.661242 39.444361-39.444361l0-86.002746 200.425775 0 0 86.002746c0 21.783119 17.661242 39.444361 39.444361 39.444361l91.048669 0c47.026036 0 85.289502 38.244023 85.289502 85.257779L827.988768 793.947464z" p-id="22473"></path><path d="M743.238548 481.735719c-9.749038 0-18.557658 3.670599-25.441439 9.532097-2.444679 0.949628-4.830005 2.159176-7.120165 3.635807-73.80596 47.628764-299.579029 165.683507-390.483412 103.430674l0-24.560372c0-7.871271 5.26491-14.535041 12.45466-16.666588 22.579251 8.075933 80.243579 28.344558 106.629529 34.212196 21.269419 4.731768 42.333154-8.667404 47.064922-29.936823 4.731768-21.263279-8.667404-42.333154-29.936823-47.064922-22.309098-4.969175-83.633792-26.54047-105.378026-34.437323-4.314259-1.566682-8.872065-2.368954-13.462616-2.368954-53.080939 0-96.261391 43.181475-96.261391 96.261391l0 160.51274c0 53.087079 43.180452 96.274694 96.261391 96.274694L686.427658 830.560336c53.073776 0 96.255251-43.187615 96.255251-96.274694L782.682909 521.18008C782.682909 499.396961 765.021667 481.735719 743.238548 481.735719zM686.427658 751.671615 337.565179 751.671615c-9.579169 0-17.372669-7.800663-17.372669-17.384949l0-49.380664c21.63474 6.776334 44.905746 9.768481 69.073168 9.768481 112.25669 0 243.240907-63.718207 314.52851-103.786785l0 143.397944C703.794188 743.870951 696.006827 751.671615 686.427658 751.671615z" p-id="22474"></path></svg>